<svg width="256" height="256" viewBox="0 0 256 256" fill="none" xmlns="http://www.w3.org/2000/svg">
  <defs>
    <linearGradient id="accent" x1="52" y1="44" x2="206" y2="204" gradientUnits="userSpaceOnUse">
      <stop stop-color="#9AD7FF"/>
      <stop offset="1" stop-color="#2D8CFF"/>
    </linearGradient>
    <linearGradient id="stroke" x1="32" y1="28" x2="220" y2="220" gradientUnits="userSpaceOnUse">
      <stop stop-color="#EAF4FF"/>
      <stop offset="1" stop-color="#7EBEFF"/>
    </linearGradient>
  </defs>

  <rect x="20" y="20" width="216" height="216" rx="48" fill="#0A1521" stroke="url(#stroke)" stroke-width="10"/>
  <path d="M58 126C75 84 116 58 160 58C176 58 191 61 205 69C177 72 156 88 140 108C126 124 105 138 80 138C71 138 64 136 58 126Z" fill="url(#accent)"/>
  <path d="M92 125C106 109 127 97 152 97C158 97 164 98 171 99C159 107 149 117 140 128C128 144 113 154 93 154C84 154 76 152 69 146C75 138 83 131 92 125Z" fill="#071018"/>
  <ellipse cx="139" cy="123" rx="21" ry="11" fill="#EAF4FF"/>
  <ellipse cx="146" cy="123" rx="7" ry="7" fill="#071018"/>
  <circle cx="54" cy="80" r="8" fill="#2D8CFF"/>
  <circle cx="54" cy="174" r="8" fill="#2D8CFF"/>
  <circle cx="176" cy="50" r="8" fill="#2D8CFF"/>
  <circle cx="176" cy="208" r="8" fill="#2D8CFF"/>
  <path d="M54 80H84" stroke="#2D8CFF" stroke-width="5" stroke-linecap="round"/>
  <path d="M54 174H86" stroke="#2D8CFF" stroke-width="5" stroke-linecap="round"/>
  <path d="M176 50V80" stroke="#2D8CFF" stroke-width="5" stroke-linecap="round"/>
  <path d="M176 178V208" stroke="#2D8CFF" stroke-width="5" stroke-linecap="round"/>
</svg>
