<svg width="960" height="280" viewBox="0 0 960 280" fill="none" xmlns="http://www.w3.org/2000/svg">
  <defs>
    <linearGradient id="accent" x1="40" y1="36" x2="180" y2="176" gradientUnits="userSpaceOnUse">
      <stop stop-color="#9AD7FF"/>
      <stop offset="1" stop-color="#2D8CFF"/>
    </linearGradient>
    <linearGradient id="screenStroke" x1="24" y1="20" x2="196" y2="192" gradientUnits="userSpaceOnUse">
      <stop stop-color="#EAF4FF"/>
      <stop offset="1" stop-color="#7EBEFF"/>
    </linearGradient>
  </defs>

  <rect x="0" y="0" width="960" height="280" rx="28" fill="#071018"/>

  <g transform="translate(40 36)">
    <rect x="0" y="0" width="156" height="156" rx="34" fill="#0B1623" stroke="url(#screenStroke)" stroke-width="8"/>
    <path d="M34 84C48 54 78 36 112 36C124 36 135 38 146 44C125 46 110 58 98 72C88 84 72 94 54 94C47 94 40 92 34 84Z" fill="url(#accent)"/>
    <path d="M59 83C70 70 85 61 104 61C109 61 113 61 118 62C109 68 101 75 94 84C86 95 75 102 61 102C55 102 50 101 45 97C49 92 54 88 59 83Z" fill="#071018"/>
    <ellipse cx="95" cy="82" rx="15" ry="8" fill="#EAF4FF"/>
    <ellipse cx="100" cy="82" rx="5" ry="5" fill="#071018"/>
    <circle cx="28" cy="48" r="6" fill="#2D8CFF"/>
    <circle cx="28" cy="144" r="6" fill="#2D8CFF"/>
    <circle cx="128" cy="28" r="6" fill="#2D8CFF"/>
    <path d="M28 48H50" stroke="#2D8CFF" stroke-width="4" stroke-linecap="round"/>
    <path d="M28 144H52" stroke="#2D8CFF" stroke-width="4" stroke-linecap="round"/>
    <path d="M128 28V48" stroke="#2D8CFF" stroke-width="4" stroke-linecap="round"/>
    <path d="M128 128V156" stroke="#2D8CFF" stroke-width="4" stroke-linecap="round"/>
    <circle cx="128" cy="160" r="6" fill="#2D8CFF"/>
  </g>

  <g transform="translate(244 68)">
    <text x="0" y="58" fill="#F4F8FC" font-family="Segoe UI, Microsoft YaHei, Arial, sans-serif" font-size="54" font-weight="700" letter-spacing="0">鳄鱼侠硬件实验室</text>
    <text x="0" y="104" fill="#8FB7D8" font-family="Inter, Segoe UI, Arial, sans-serif" font-size="24" font-weight="600" letter-spacing="1.6">CROC<span fill="#A8DEFF">HERO</span> HARDWARE LAB</text>
    <path d="M0 142H420" stroke="#213548" stroke-width="2"/>
    <text x="0" y="182" fill="#B3C5D7" font-family="Inter, Segoe UI, Arial, sans-serif" font-size="22" font-weight="400" letter-spacing="0">Personal smart hardware, product prototypes, and small connected devices.</text>
  </g>
</svg>
